<?xml version="1.0" encoding="utf-8"?>
<!-- Generator: Adobe Illustrator 24.2.0, SVG Export Plug-In . SVG Version: 6.00 Build 0)  -->
<svg  fill="#2c7be5" version="1.1" id="all-icon" xmlns="http://www.w3.org/2000/svg" xmlns:xlink="http://www.w3.org/1999/xlink" x="0px" y="0px"
	 viewBox="0 0 256 256" style="enable-background:new 0 0 256 256;" xml:space="preserve">
<g id="ic-download">
	<path d="M205,248c-51.1,0-102.1,0-153.2,0c-10-3.8-13.1-11.2-13-21.6c0.3-65.4,0.3-130.9,0-196.3c0-10.5,2.8-18.2,13-22.1
		c31.1,0,62.3,0,93.4,0c2.1,1.8,4.3,3.5,6.3,5.5c20.6,20.6,41.1,41.3,61.8,61.8c3.4,3.3,4.7,6.9,4.7,11.6
		c-0.1,46.5-0.2,93,0.1,139.5C218.1,236.8,215.1,244.3,205,248z M136.1,22.9c-2.1,0-3.7,0-5.2,0c-24,0-47.9,0.1-71.9-0.1
		c-4.2,0-5.5,1-5.5,5.4c0.1,66.5,0.1,133.1,0,199.6c0,4.4,1.3,5.4,5.5,5.4c46.2-0.1,92.4-0.1,138.6,0c4.4,0,5.8-1,5.8-5.6
		c-0.2-44-0.1-88.1-0.1-132.1c0-1.6-0.1-3.3-0.2-5.1c-16.4,0-32.3,0-48.2,0c-12.7,0-18.8-6.2-18.8-19
		C136.1,55.4,136.1,39.5,136.1,22.9z M190.3,75.7c-13.2-13.2-26.6-26.7-39.6-39.8c0,11.5-0.1,24.1,0.1,36.8c0,1,1.9,2.9,2.9,2.9
		C166.3,75.8,178.9,75.7,190.3,75.7z"/>
	<path d="M137.4,154.8c2.5-2.9,4.9-6,7.7-8.7c3.8-3.8,8-3.9,11-0.6c3,3.2,2.8,7.1-0.8,10.8c-7,7.1-14,14.2-21.1,21.2
		c-3.8,3.7-7.3,3.9-11,0.2c-7.4-7.1-14.6-14.4-21.8-21.8c-3.3-3.4-3.3-7.4-0.4-10.4c3-3.2,7.1-3.2,10.7,0.3c2.9,2.8,5.3,6,8,8.9
		c0.4-0.3,0.9-0.6,1.3-0.8c0.1-1.5,0.3-2.9,0.3-4.4c0-12.8,0-25.6,0-38.4c0-5.7,2.7-9.1,7.1-9.2c4.5-0.1,7.5,3.4,7.5,9.3
		c0,14.2,0,28.3,0,42.5C136.3,154.1,136.8,154.5,137.4,154.8z"/>
	<path d="M128.2,210.3c-11.7,0-23.3,0-35,0c-5.9,0-9.4-2.9-9.4-7.4c0.1-4.4,3.5-7.2,9.1-7.2c23.6,0,47.3,0,70.9,0
		c5.6,0,9,2.8,9.1,7.2c0.1,4.5-3.5,7.4-9.4,7.4C151.9,210.4,140,210.3,128.2,210.3z"/>
</g>
</svg>
