<?xml version="1.0" encoding="utf-8"?>
<!-- Generator: Adobe Illustrator 24.2.0, SVG Export Plug-In . SVG Version: 6.00 Build 0)  -->
<svg fill="#2c7be5" version="1.1" id="ic-download-1" xmlns="http://www.w3.org/2000/svg" xmlns:xlink="http://www.w3.org/1999/xlink" x="0px" y="0px"
	 viewBox="0 0 256 256" style="enable-background:new 0 0 256 256;" xml:space="preserve">
<g>
	<path d="M249,214.9c-1.2,2.6-2,5.3-3.6,7.6c-3.1,4.5-7.7,6.9-13.2,7.1c-0.7,0-1.4,0-2.1,0c-68.2,0-136.4,0-204.6,0
		c-9,0-15.8-4.5-18.1-12.4c-1.5-5.1-1.5-10.3,0-15.4c2.1-7.5,8.9-12.5,16.8-12.5c13.1-0.1,26.2,0,39.3,0c54.6,0,109.3,0,163.9,0
		c13,0,17.3,3,21.7,15.2C249,208,249,211.5,249,214.9z"/>
	<path d="M102.5,98.4c0-1.3,0-2.3,0-3.2c0-17.8,0-35.7,0-53.5c0-9.1,5-14,14.1-14c7.5,0,15,0,22.5,0c8.9,0,13.9,5,13.9,14
		c0,17.8,0,35.7,0,53.5c0,0.9,0,1.9,0,3.1c1,0,1.8,0.1,2.6,0.1c8.1,0,16.3,0,24.4,0c3.6,0,6.3,1.3,7.8,4.7c1.4,3.3,0.5,6.1-1.9,8.7
		c-17.4,18.2-34.8,36.4-52.2,54.6c-3.7,3.9-8.1,3.8-11.8,0c-17.4-18.2-34.8-36.4-52.2-54.6c-2.4-2.5-3.3-5.4-1.9-8.6
		c1.4-3.4,4.2-4.7,7.8-4.7c8,0.1,16.1,0,24.1,0C100.5,98.4,101.4,98.4,102.5,98.4z"/>
</g>
</svg>
