<?xml version="1.0" encoding="utf-8"?>
<!-- Generator: Adobe Illustrator 24.2.0, SVG Export Plug-In . SVG Version: 6.00 Build 0)  -->
<svg fill="#2c7be5" version="1.1" id="ic-delete" xmlns="http://www.w3.org/2000/svg" xmlns:xlink="http://www.w3.org/1999/xlink" x="0px" y="0px"
	 viewBox="0 0 256 256" style="enable-background:new 0 0 256 256;" xml:space="preserve">
<g>
	<path d="M68,246c-0.4-0.3-0.7-0.7-1.1-0.8c-10.2-2.8-15.2-9.8-16.1-20.1c-2.3-27.5-4.5-55.1-6.7-82.6c-1.7-20.2-3.4-40.4-5-60.6
		c-0.2-2.7-1.1-4.3-3.7-5.6c-8.6-4.5-12.6-13.9-10.4-23c2.2-8.9,10.3-15.4,20-15.5c11.4-0.2,22.7,0,34.9,0c0-2.7-0.1-5.1,0-7.5
		c0.4-11.3,8.7-19.9,19.9-20.1c18.7-0.3,37.5-0.3,56.2,0c11.3,0.2,19.5,8.8,19.9,20.1c0.1,2.3,0,4.5,0,7.5c5.4,0,10.2,0,15.1,0
		c6.5,0,12.9-0.1,19.4,0c10,0.1,18.1,6.4,20.4,15.5c2.3,9.3-2,18.4-10.6,23.4c-1.5,0.9-3,3-3.2,4.7c-1.6,16.8-3,33.6-4.4,50.5
		c-2,24.5-4.1,49-6.1,73.4c-0.6,7.2-1,14.4-1.8,21.6c-1.1,9.4-6.3,15.4-15.3,18.1c-0.6,0.2-1,0.6-1.5,0.9C147.9,246,108,246,68,246z
		 M52.3,79.1c1.3,16.6,2.6,32.7,3.9,48.7c2.6,31.8,5.3,63.6,8,95.5c0.6,6.8,2.7,9,9.5,9c36.3,0,72.5,0,108.8,0
		c6.5,0,8.8-2.3,9.3-8.7c0.6-8.7,1.3-17.4,2.1-26.2c3-35.2,5.9-70.4,8.9-105.5c0.4-4.2,0.6-8.4,0.8-12.7
		C152.9,79.1,102.9,79.1,52.3,79.1z M128,51.3c-27.2,0-54.4,0-81.6,0c-5.3,0-8.5,2.6-8.6,6.9c-0.1,4.4,3.2,7.2,8.7,7.3
		c0.6,0,1.2,0,1.8,0c53,0,106,0,159,0c1.5,0,3.4,0.5,4.5-0.2c2.2-1.3,5-3.1,5.5-5.2c0.5-2.1-0.8-5.4-2.4-7.1
		c-1.3-1.4-4.2-1.6-6.4-1.6C181.8,51.2,154.9,51.3,128,51.3z M162.6,37.5c0.1-1.5,0.3-2.6,0.3-3.6c0.1-7.8-2.2-10.3-10-10.3
		c-17,0-34.1,0-51.1,0c-3.7,0-7,0.9-8,4.7c-0.8,2.8-0.6,5.9-0.8,9.2C116.5,37.5,139.3,37.5,162.6,37.5z"/>
	<path d="M100.1,211.9c0,2.7-2.5,6-6.4,6.2c-3.9,0.2-6.8-2.8-7.1-7.4c-2.2-35.9-4.4-71.7-6.6-107.6c-0.1-1.2-0.1-2.5-0.1-3.7
		c0.2-3.9,2.6-6,6.1-6.2c3.6-0.2,6.3,1.8,6.7,5.5c0.6,5.9,1,11.9,1.3,17.9C96.1,147.8,98.1,178.9,100.1,211.9z"/>
	<path d="M175.8,105.6c-2.1,32.6-4.1,65.3-6.2,97.9c-0.1,2.3-0.2,4.6-0.3,6.9c-0.3,4.7-3,7.8-6.9,7.7c-4.1-0.1-6.9-3.4-6.6-8.3
		c0.9-15.8,1.9-31.6,2.9-47.3c1.1-18.2,2.3-36.5,3.4-54.7c0.2-2.8,0.3-5.5,0.7-8.3c0.6-4.1,3.5-6.7,7-6.3c3.6,0.3,5.9,3.2,6,7.4
		c0,1.7,0,3.4,0,5.1C175.9,105.6,175.9,105.6,175.8,105.6z"/>
	<path d="M121.4,155.7c0-17.5,0-35,0-52.5c0-1.5-0.1-3.1,0.2-4.6c0.6-3.5,3-5.4,6.4-5.4c3.4,0,5.8,1.9,6.3,5.5
		c0.2,1.5,0.2,3.1,0.2,4.6c0,34.8,0,69.7,0,104.5c0,1.7,0.5,3.9-0.3,5c-1.6,2.1-3.8,4.6-6.1,5.1c-3.2,0.7-5.8-1.6-6.5-5.1
		c-0.3-1.6-0.2-3.4-0.2-5C121.4,190.4,121.4,173,121.4,155.7z"/>
</g>
</svg>
