<?xml version="1.0" encoding="utf-8"?>
<!-- Generator: Adobe Illustrator 24.2.0, SVG Export Plug-In . SVG Version: 6.00 Build 0)  -->
<svg fill="#2c7be5" version="1.1" id="ic-edit" xmlns="http://www.w3.org/2000/svg" xmlns:xlink="http://www.w3.org/1999/xlink" x="0px" y="0px"
	 viewBox="0 0 256 256" style="enable-background:new 0 0 256 256;" xml:space="preserve">
<g>
	<path d="M55.6,245c-0.5-0.3-1-0.7-1.5-0.9c-19.2-4.6-29.9-17.9-29.9-37.9c-0.1-46.9,0-93.8,0-140.7c0-7-0.2-14,0.4-20.9
		c1.6-18.1,16.3-32.3,34.5-32.4c38.2-0.4,76.5-0.4,114.7,0c19.4,0.2,34.5,16.3,34.6,35.8c0.1,18.4,0.1,36.7,0,55.1
		c0,6.2-3.3,9.9-8.8,9.9c-5.4,0-8.9-3.6-9-9.8c-0.1-17.4,0-34.9-0.1-52.3c0-13.9-7.1-20.9-21-20.9c-35.7,0-71.3,0-107,0
		c-13.4,0-20.8,7.4-20.8,20.8c0,51.7,0,103.5,0,155.2c0,13.5,7.3,20.9,20.7,20.9c8.3,0,16.7,0,25,0c6.9,0,10.4,1.9,11.6,6.5
		c1.3,4.7-0.4,7.8-6.3,11.6C80.5,245,68.1,245,55.6,245z"/>
	<path d="M129.4,245c-6.8-5-7.5-7-4.9-15.3c3-9.8,5.8-19.8,9-29.5c1-2.9,2.6-5.9,4.8-8c15.8-16,31.7-31.8,47.6-47.6
		c11.3-11.2,27.9-11.5,38.7-0.7c10.8,10.6,10.8,27.5-0.2,38.7C208.3,198.8,192,215,175.7,231c-1.8,1.8-4.5,3-7,3.8
		c-10.6,3.1-21.3,6-31.9,9c-1,0.3-1.9,0.8-2.9,1.2C132.4,245,130.9,245,129.4,245z M183.7,171.4c-9.2,9.3-18.2,19.1-28.1,28.1
		c-6.9,6.3-7.4,14.7-9.8,22.9c8.1-2.7,17.2-2,23.3-9.6c3.9-4.8,8.7-8.9,13.1-13.2c5-5,10.1-10,14.9-14.7
		C192.7,180.2,188.5,176.1,183.7,171.4z M197.6,158.1c4.4,4.4,8.6,8.6,12.9,12.9c2.9-2.2,4.8-5.1,4.2-9.1c-0.6-3.9-2.9-6.7-6.8-7.8
		C203.8,153,200.4,154.6,197.6,158.1z"/>
	<path d="M116.6,84.6c-14.6,0-29.1,0-43.7,0c-1.2,0-2.4,0.1-3.6-0.1c-5-0.5-8.7-4.2-8.7-8.9c0-4.7,3.6-8.5,8.6-8.9
		c2.4-0.2,4.9-0.1,7.3-0.1c27.5,0,54.9,0,82.4,0c1.2,0,2.4,0,3.6,0c5.7,0.2,9.5,3.8,9.5,8.9c0,5.1-3.7,8.9-9.5,8.9
		C147.3,84.7,131.9,84.6,116.6,84.6z"/>
	<path d="M116.2,121c-14.4,0-28.8,0-43.2,0c-1.2,0-2.4,0.1-3.6-0.1c-5-0.5-8.7-4.2-8.7-8.9c0-4.7,3.6-8.5,8.6-8.9
		c2.4-0.2,4.9-0.1,7.3-0.1c27.5,0,54.9,0,82.4,0c1.2,0,2.4,0,3.6,0c5.7,0.2,9.5,3.8,9.5,8.9c0,5.1-3.7,8.9-9.5,8.9
		C147.1,121.1,131.6,121,116.2,121z"/>
	<path d="M98.1,139.5c8.9,0,17.9,0,26.8,0c6.3,0,10.4,3.7,10.4,9c0,5.3-4.2,8.9-10.5,8.9c-17.9,0-35.7,0-53.6,0
		c-6.4,0-10.5-3.5-10.6-8.8c-0.1-5.4,4.1-9.1,10.7-9.1C80.3,139.5,89.2,139.5,98.1,139.5z"/>
</g>
</svg>
