<?xml version="1.0" encoding="utf-8"?>
<!-- Generator: Adobe Illustrator 24.2.0, SVG Export Plug-In . SVG Version: 6.00 Build 0)  -->
<svg fill="#2c7be5" version="1.1" id="ic-edit-properties" xmlns="http://www.w3.org/2000/svg" xmlns:xlink="http://www.w3.org/1999/xlink" x="0px" y="0px"
	 viewBox="0 0 256 256" style="enable-background:new 0 0 256 256;" xml:space="preserve">
<g>
	<path d="M16,234.8c0-57.5,0-115.1,0-172.6C31.4,46.8,46.8,31.4,62.2,16c37.8,0,75.5,0,113.3,0c3.5,2.3,4.5,5.5,4.4,9.6
		c-0.2,10.6-0.1,21.2-0.1,31.8c0,1.5,0.2,3,0.2,4.5c10,1.1,10,1.1,11.3,10.6c0.4,2.8,0.8,5.6,1.3,9.1c3.7-2.9,6.7-5.3,9.7-7.7
		c4-3.1,6.8-3.1,10.4,0.4c4.7,4.5,9.3,9.2,13.9,13.8c3.6,3.7,3.7,6.2,0.6,10.3c-2.4,3.2-5,6.3-7.9,10.1c4.8,0.6,8.8,1.1,12.8,1.6
		c4.9,0.6,6.9,2.7,6.9,7.7c0.1,6.2,0,12.5,0,18.7c0,5.9-1.8,7.7-7.5,8.5c-3.8,0.5-7.5,1-12,1.6c2.9,3.7,5.3,6.6,7.6,9.5
		c3.4,4.3,3.3,6.8-0.4,10.7c-4.4,4.6-9,9.1-13.5,13.6c-3.9,3.8-6.4,3.9-10.7,0.6c-3.1-2.4-6.2-4.9-9.9-7.8c-0.5,3.9-0.9,6.9-1.3,9.9
		c-1.1,8.9-1.3,9.1-10.3,10c-0.2,0-0.5,0.3-1.2,0.7c0,1.3,0,2.8,0,4.4c0,10.5,0,20.9,0,31.4c0,7.7-1.8,9.4-9.5,9.4
		c-48.2,0-96.4,0-144.6,0.1C21.7,239,18.4,238.2,16,234.8z M154.7,174.3c-0.6,0.1-1,0-1.2,0.1c-3,2.3-5.9,4.7-8.9,7
		c-3.8,2.9-6.7,2.8-10-0.4c-4.8-4.7-9.5-9.4-14.2-14.1c-3.2-3.3-3.3-6.3-0.5-10c2.5-3.2,5-6.4,8-10.2c-4.8-0.6-9-1.1-13.1-1.7
		c-4.6-0.6-6.4-2.5-6.5-7.1c-0.1-6.8-0.1-13.7,0-20.5c0.1-4.8,1.9-6.6,6.8-7.2c3.9-0.5,7.8-1,12.4-1.7c-3.1-3.9-5.5-6.9-7.9-10
		c-2.8-3.7-2.7-6.7,0.6-10c4.4-4.5,8.8-8.9,13.2-13.3c4.5-4.4,6.7-4.6,11.6-0.7c3,2.3,6,4.6,9.4,7.3c0.7-5.2,1.2-9.5,1.8-13.8
		c0.5-3.7,2.8-5.6,6.5-5.7c1.3,0,2.5-0.2,4-0.3c0-11.1,0-21.8,0-32.7c-32.1,0-64,0-96.1,0c0,10.6,0,20.9,0,31.2
		c0,8.6-1.7,10.3-10.1,10.3c-9,0-18,0-27,0c-1.5,0-3,0.1-4.4,0.2c0,52,0,103.5,0,154.9c46.1,0,91.9,0,137.9,0c0-10.5,0-20.7,0-30.9
		c0-0.5-0.2-1.1-0.4-1.8c-0.8-0.1-1.5-0.2-2.2-0.3c-6.3-0.3-7.6-1.4-8.5-7.5C155.5,181.7,155.1,178,154.7,174.3z M121,132.8
		c4.4,0.6,8.5,1.1,12.7,1.7c7.4,1.1,11.3,10.7,6.8,16.7c-2.5,3.3-5.1,6.5-7.5,9.5c2.5,2.8,4.7,5.3,7.2,8c3.6-2.9,6.8-6,10.5-8.2
		c2.1-1.2,5.1-1.6,7.6-1.2c7,1.1,8.7,6.2,9.3,12.6c0.7,8.9,1.1,8.8,10.1,8.2c0.4,0,0.8-0.3,1.4-0.6c0.4-3.9,0.8-8,1.4-12
		c1.2-7.7,10.8-11.6,17-6.8c3.3,2.5,6.5,5.1,9,7.1c3.1-2.7,5.5-4.9,8.2-7.2c-2.8-3.5-5.4-6.7-8-10c-4.3-5.6-0.4-15.2,6.6-16.2
		c4.3-0.6,8.6-1.1,13-1.6c0-3.7,0-6.9,0-10.6c-4.3-0.5-8.4-1-12.5-1.6c-7.7-1.1-11.5-10.7-6.7-16.9c2.5-3.2,5-6.4,6.9-8.8
		c-2.4-3-4.6-5.7-6.8-8.5c-3.3,2.7-6.3,4.8-9,7.2c-3.4,3.2-6.9,3.3-11.1,1.6c-4.4-1.8-6.5-4.4-6.8-9c-0.2-3.7-0.8-7.4-1.2-10.9
		c-10.3-1.2-10.3-1.2-11.7,8.4c-0.2,1.3-0.4,2.6-0.5,3.9c-0.1,3.4-1.8,5.6-5,6.9c-3.9,1.5-7.6,3.9-11.7,0.2
		c-3.1-2.8-6.5-5.2-9.9-7.9c-2.6,2.6-5,5-7.6,7.6c2.7,3.4,5.4,6.7,7.9,10c4.3,5.6,0.4,15.2-6.5,16.2c-4.3,0.6-8.6,1.1-13,1.7
		C121,126,121,129.2,121,132.8z M39.8,57.6c5.7,0,11.8,0,17.9,0c0-6.4,0-12.4,0-18C51.7,45.6,45.7,51.7,39.8,57.6z"/>
	<path d="M79.6,188.7c9.6,0,19.1,0,28.7,0c5.3,0,8,2.3,7.9,6.5c-0.1,4-2.8,6.2-7.8,6.2c-19.4,0-38.9,0-58.3,0
		c-4.8,0-7.8-2.5-7.8-6.3c0-3.8,3-6.4,7.7-6.4C59.9,188.7,69.8,188.7,79.6,188.7z"/>
	<path d="M68.7,84.1c5.9,0,11.9,0,17.8,0c5.3,0,8,2.3,8,6.4c-0.1,4-2.7,6.3-7.7,6.3c-12.2,0-24.4,0-36.5,0c-4.8,0-7.8-2.5-7.9-6.3
		c-0.1-3.9,3-6.4,8.1-6.5C56.5,84.1,62.6,84.1,68.7,84.1z"/>
	<path d="M68.2,123c-6.1,0-12.2,0.1-18.3,0c-4.7-0.1-7.7-2.7-7.6-6.5c0.1-3.7,3-6.1,7.5-6.2c12.5-0.1,24.9-0.1,37.4,0
		c4.6,0,7.2,2.4,7.2,6.3c0,3.9-2.6,6.3-7.2,6.4C81,123.1,74.6,123,68.2,123z"/>
	<path d="M68.3,136.4c6.2,0,12.5,0,18.7,0c4.9,0,7.6,2.4,7.5,6.5c-0.1,3.8-2.7,6.2-7.3,6.2c-12.5,0.1-24.9,0.1-37.4,0
		c-4.5,0-7.4-2.6-7.4-6.3c-0.1-3.8,3-6.4,7.7-6.4C56.1,136.4,62.2,136.4,68.3,136.4z"/>
	<path d="M68.5,162.6c6.1,0,12.2,0,18.3,0c5,0,7.7,2.2,7.7,6.2c0.1,4.1-2.6,6.5-7.5,6.5c-12.3,0.1-24.6,0.1-37,0
		c-4.7,0-7.7-2.7-7.7-6.5c0.1-3.8,3.1-6.2,7.9-6.2C56.3,162.5,62.4,162.6,68.5,162.6z"/>
	<path d="M193.8,127.5c0,11.5-8.9,20.4-20.4,20.4c-11.2-0.1-20.2-9.1-20.3-20.2c-0.1-11.2,9.2-20.4,20.5-20.4
		C185,107.4,193.8,116.2,193.8,127.5z M173.7,135.3c4.2-0.1,7.6-3.8,7.4-8.1c-0.2-4.1-3.6-7.4-7.6-7.4c-4.1,0-7.8,3.7-7.7,7.9
		C165.9,131.8,169.6,135.4,173.7,135.3z"/>
</g>
</svg>
