<?xml version="1.0" encoding="utf-8"?>
<!-- Generator: Adobe Illustrator 24.2.0, SVG Export Plug-In . SVG Version: 6.00 Build 0)  -->
<svg fill="#2c7be5" version="1.1" id="all-icon" xmlns="http://www.w3.org/2000/svg" xmlns:xlink="http://www.w3.org/1999/xlink" x="0px" y="0px"
	 viewBox="0 0 256 256" style="enable-background:new 0 0 256 256;" xml:space="preserve">
<g id="ic-folder-move">
	<path d="M128.1,225.2c-27.3,0-54.7,0-82,0c-15.4,0-26.3-7.6-29.9-20.8c-0.9-3.4-1.2-7.1-1.2-10.7c-0.1-43.8-0.1-87.6,0-131.4
		c0-20,11.6-31.5,31.7-31.5c15.5-0.1,31,0.1,46.4-0.1c12.2-0.2,21.3,4.7,28.3,14.9c12.4,18.2,9.4,16.8,31.8,16.8
		c18.6,0,37.2,0,55.8,0c20.5,0,32,11.4,32,31.7c0.1,33.4,0.1,66.8,0,100.3c0,15.2-7.8,26.2-21.1,29.7c-3.6,0.9-7.5,1.1-11.2,1.1
		C181.8,225.2,154.9,225.2,128.1,225.2z M127.5,209.9c27.3,0,54.7,0,82,0c11.1,0,16.3-5.3,16.3-16.4c0-33.1,0-66.2,0-99.3
		c0-11.7-5.1-16.7-17-16.7c-22.9,0-45.8,0-68.6,0c-9.9,0-17.8-4.1-23.7-12c-2.7-3.7-5.5-7.4-7.9-11.3c-3.7-5.9-8.7-8.4-15.7-8.3
		c-15.3,0.2-30.6,0.1-45.9,0.1c-11.8,0-16.9,5-16.9,16.8c0,43.5,0,86.9,0,130.4c0,11.8,5.1,16.8,16.9,16.8
		C73.8,209.9,100.6,209.9,127.5,209.9z"/>
	<path d="M135.3,134.2c-2.4-1.9-5-3.7-7.2-5.9c-3.3-3.4-3.3-8.1-0.3-11c3-3,7.5-3,11,0.4c7,6.7,13.9,13.6,20.7,20.5
		c3.6,3.6,3.5,7.7-0.1,11.4c-6.7,6.8-13.5,13.5-20.4,20.1c-3.7,3.6-8.3,3.7-11.4,0.5c-3-3.1-2.8-7.8,0.8-11.4c2-2.1,4.3-3.8,6.5-5.7
		c-0.3-0.5-0.6-1-0.9-1.5c-8.3,0-16.6,0-24.9,0c-2.5,0-4.9,0.1-7.4,0c-4.8-0.3-7.9-3.4-7.8-7.8c0-4.4,3.1-7.5,8-7.6
		c8.9-0.2,17.8-0.1,26.7-0.1c1.8,0,3.6,0,5.4,0C134.5,135.4,134.9,134.8,135.3,134.2z"/>
</g>
</svg>
