<?xml version="1.0" encoding="utf-8"?>
<!-- Generator: Adobe Illustrator 24.2.0, SVG Export Plug-In . SVG Version: 6.00 Build 0)  -->
<svg fill="#2c7be5" version="1.1" id="all-icon" xmlns="http://www.w3.org/2000/svg" xmlns:xlink="http://www.w3.org/1999/xlink" x="0px" y="0px"
	 viewBox="0 0 256 256" style="enable-background:new 0 0 256 256;" xml:space="preserve">
<g id="ic-link">
	<path d="M10,182.6c0.8-3.4,1.4-6.8,2.4-10.2c3.2-11.5,9.2-21.3,17.4-29.8c8.2-8.5,16.6-16.8,24.9-25.1c4.5-4.5,9.5-4.8,13.4-1
		c3.8,3.7,3.5,9.3-0.9,13.8c-8.4,8.5-17.1,16.7-25.1,25.5c-11,12-17,26-12.4,42.5c6.8,24.6,33.9,35.7,57.1,23.3
		c5.3-2.8,10.3-6.6,14.7-10.8c11.4-10.9,22.5-22.1,33.5-33.4c9.2-9.3,15.5-20.1,15.6-33.7c0.1-14.7-6.8-25.7-18.8-33.7
		c-3.7-2.5-6.4-5.4-5.6-10.1c1-6.3,7.8-9.4,13.5-6.1c15.4,9.1,25.3,22.4,28.2,40.3c3.4,21.1-4.2,38.9-18.4,54
		c-12.1,12.8-24.6,25.1-37.3,37.4c-10.5,10.1-22.8,16.8-37.5,18.7c-0.7,0.1-1.4,0.5-2.1,0.8c-3.7,0-7.3,0-11,0c-1-0.3-2-0.8-3-1
		c-23.8-4.6-39-18.8-46.3-41.7c-0.9-2.9-1.4-5.9-2.1-8.8C10,189.9,10,186.2,10,182.6z"/>
	<path d="M245,65.7c-0.4,19-7.5,33.9-19.5,46.5c-8.1,8.5-16.5,16.8-24.9,25.1c-4.7,4.6-9.8,4.9-13.7,0.9c-3.7-3.8-3.2-9.2,1.3-13.8
		c8.2-8.3,16.5-16.4,24.5-24.8c8.1-8.5,13.6-18.6,14.2-30.6c1.4-29-27.6-49.1-54.5-37.6c-5.8,2.5-11.5,6-16.1,10.3
		c-13,12.3-25.6,25-38.1,37.8c-7.4,7.6-12.3,16.9-13.4,27.6c-1.6,15.2,4.4,27.1,16.4,36.2c1.2,0.9,2.6,1.7,3.8,2.6
		c4.4,3.2,5.4,8.2,2.6,12.5c-2.6,4-7.7,5.2-12.1,2.6c-15.2-9.1-25.1-22.3-28.1-39.9c-3.6-21.7,4.3-39.7,19-55.1
		c11.7-12.3,23.8-24.2,36-36c10.9-10.6,23.8-17.3,39.1-19.5c28.8-4,58.7,18.4,62.7,47.4C244.5,60.9,244.8,64,245,65.7z"/>
</g>
</svg>
