<?xml version="1.0" encoding="utf-8"?>
<!-- Generator: Adobe Illustrator 24.2.0, SVG Export Plug-In . SVG Version: 6.00 Build 0)  -->
<svg fill="#2c7be5" version="1.1" id="all-icon" xmlns="http://www.w3.org/2000/svg" xmlns:xlink="http://www.w3.org/1999/xlink" x="0px" y="0px"
	 viewBox="0 0 256 256" style="enable-background:new 0 0 256 256;" xml:space="preserve">
<g id="ic-share">
	<path d="M203.8,7c3,0.8,6,1.6,9,2.6c16.4,5.6,27.6,20.6,28.5,37.9c0.9,16.8-9,33-24.5,40.2c-15.6,7.2-33.5,4.3-46.3-7.6
		c-1.1-1.1-1.8-2.5-2.8-3.9c-13.4,8-25.8,15.5-38.3,23c-9.8,5.9-19.6,11.9-29.4,17.7c-2.2,1.3-3.1,2.4-2.1,5.2
		c2.4,7.1,2.7,14.4,1.1,21.8c-0.3,1.2,0.9,3.6,2,4.2c20.3,10.6,40.7,20.9,61,31.5c2.7,1.4,4,0.6,5.8-1.4c11.2-12.2,25.1-17,41.2-13
		c15.9,3.9,26.3,14.2,30.7,30c6.3,22.9-8.2,46.9-31.2,51.9c-23.8,5.2-47.1-10.3-50.7-34.2c-0.8-5.3,0.3-10.8,0.3-16.3
		c0-1.5-0.6-3.8-1.6-4.4c-21-10.9-42.1-21.6-63.2-32.4c-0.3-0.1-0.6-0.1-0.9-0.1c-20.8,25.3-50.9,18.9-64.6,4.7
		c-15.6-16.2-16-41.4-1-58c14-15.5,42.2-20.8,63,0.8c23.2-14,46.6-28,70.1-42.1c-2.9-8.5-4-16.8-1.7-25.2
		c4.7-16.9,15.6-27.4,32.7-31.5c1.2-0.3,2.4-0.7,3.5-1.1C197.5,7,200.7,7,203.8,7z"/>
</g>
</svg>
