<?xml version="1.0" encoding="utf-8"?>
<!-- Generator: Adobe Illustrator 24.2.0, SVG Export Plug-In . SVG Version: 6.00 Build 0)  -->
<svg fill="#2c7be5" version="1.1" id="all-icon" xmlns="http://www.w3.org/2000/svg" xmlns:xlink="http://www.w3.org/1999/xlink" x="0px" y="0px"
	 viewBox="0 0 256 256" style="enable-background:new 0 0 256 256;" xml:space="preserve">
<g>
	<path d="M7,203.1c0.2-0.3,0.4-0.7,0.5-1c2.3-8.5,8.9-13.6,17.7-13.6c17.4,0,34.9,0,52.3,0c51.2,0,102.3,0,153.5,0
		c9.7,0,17,5.8,18.3,15.1c0.5,3.8,0.4,7.8-0.2,11.5c-1.3,7.7-8.3,13.3-16,13.7c-0.9,0-1.7,0.1-2.6,0.1c-68.1,0-136.1,0-204.2,0
		c-7.5,0-13.3-2.8-17.1-9.4c-0.9-1.7-1.4-3.6-2.1-5.5C7,210.3,7,206.7,7,203.1z"/>
	<path d="M103,97.4c-9.3,0-18.3,0-27.3,0c-4.2,0-7.1-2.3-7.9-6.1c-0.6-3,0.6-5.3,2.6-7.5C81,72.8,91.6,61.7,102.2,50.7
		c6.6-7,13.3-13.9,20-20.9c3.9-4.1,8.5-4.1,12.4,0c17.2,18,34.4,36.1,51.7,54.1c2,2.1,3.2,4.3,2.6,7.2c-0.7,3.8-3.7,6.2-7.8,6.2
		c-8.2,0-16.4,0-24.6,0c-0.9,0-1.7,0-2.9,0c0,1.1,0,2,0,3c0,18.2,0,36.3,0,54.5c0,6.5-3.5,11.3-9.4,12.8c-1.3,0.3-2.7,0.4-4,0.4
		c-7.8,0-15.6,0-23.4,0c-8.5,0-13.6-5.1-13.6-13.6c0-18,0-36,0-54C103,99.6,103,98.7,103,97.4z"/>
</g>
</svg>
